:SAMPLES-PER-SECOND 30
:FRAME-RANGE 1-2091
:FULLY-SPECIFIED
:DEGREES
66
root  -6.5406 38.5654 -111.393 4.3281 -8.72115 -4.66654
RightUpLeg  -16.5674 6.23045 4.07994
RightLeg  25.8844 0.789539 0.18665
RightFoot  -13.157 -0.0616536 1.73335
RightToes  5.38607e-012 1.2921e-014 -6.02303e-014
Spine  -6.27424 -6.40777 3.13983
Spine1  11.635 -8.1032 5.34221
HEad  37.8038 -16.0684 -7.65183
LeftShoulder1  1.48642 -2.20652 -20.8116
LeftArm  -3.70354 4.96086 -53.2927
LeftForeArm  37.0266 1.56181 -12.2044
LeftHand  -0.0303163 5.21141 3.89021
RightShoulder  0.640986 -1.40821 27.5349
RightArm  -33.5553 -2.7973 36.6751
RightForeArm  -4.57756 6.32706 -0.0759351
RightHand  -0.0782558 -0.0159981 -1.69992
LeftUpLeg  -11.0062 -2.02619 3.89571
LeftLeg  57.0426 3.11857 5.70261
LeftFoot  -4.88946 0.445368 -7.37582
LeftToes  -7.20997e-011 3.75522e-011 -2.80735e-011
67
root  -6.84062 38.6426 -110.555 3.86878 -7.58991 -4.21298
RightUpLeg  -14.3379 5.13607 4.14499
RightLeg  25.382 0.603921 0.0819174
RightFoot  -14.2835 -0.0676931 1.12954
RightToes  5.38607e-012 1.2921e-014 -6.02303e-014
Spine  -5.74843 -6.07033 2.82062
Spine1  10.8148 -7.67443 5.47303
HEad  38.4478 -16.8781 -7.32829
LeftShoulder1  1.47987 -2.17147 -20.868
LeftArm  -3.78948 4.44176 -53.5789
LeftForeArm  36.7943 1.42484 -12.1518
LeftHand  -0.0387414 4.91182 3.84221
RightShoulder  0.661747 -1.34264 27.4743
RightArm  -35.88 0.0583836 37.5927
RightForeArm  -8.09007 7.98904 -1.10005
RightHand  -0.0341956 -0.0225193 -0.741898
LeftUpLeg  -13.7338 -2.19048 3.92352
LeftLeg  57.7827 4.40424 8.03357
LeftFoot  -5.9001 0.342705 -6.46392
LeftToes  -7.20997e-011 3.75522e-011 -2.80735e-011
68
root  -7.11093 38.7427 -109.717 3.5335 -6.49306 -3.69444
RightUpLeg  -12.082 3.62492 4.0337
RightLeg  24.4975 0.809453 0.173673
RightFoot  -15.1232 -0.0849491 0.526945
RightToes  5.38607e-012 1.2921e-014 -6.02303e-014
Spine  -5.39352 -5.65652 2.77254
Spine1  10.0572 -7.0864 5.1552
HEad  38.6901 -17.5508 -6.9467
LeftShoulder1  1.46595 -2.14978 -20.7101
LeftArm  -3.86957 3.88727 -53.9425
LeftForeArm  36.5393 1.09718 -12.0998
LeftHand  -0.0332557 5.11535 4.03189
RightShoulder  0.684055 -1.24934 27.0255
RightArm  -37.8149 2.48797 38.3794
RightForeArm  -11.3491 9.54288 -1.89651
RightHand  -0.0133267 -0.200922 -0.275663
LeftUpLeg  -16.3892 -2.46883 3.72631
LeftLeg  56.4329 5.20285 8.89413
LeftFoot  -6.86323 0.241332 -5.11832
LeftToes  -7.20997e-011 3.75522e-011 -2.80735e-011
69
root  -7.35804 38.8651 -108.869 3.30282 -5.84535 -2.919
RightUpLeg  -9.87365 2.02069 3.48226
RightLeg  23.449 1.5781 0.522953
RightFoot  -15.789 -0.109232 -0.0621092
RightToes  5.38607e-012 1.2921e-014 -6.02303e-014
Spine  -5.08725 -5.02793 2.62693
Spine1  9.20284 -6.25561 4.5863
HEad  38.5302 -17.9427 -6.65398
LeftShoulder1  1.41166 -1.93272 -20.7914
LeftArm  -3.62909 3.33488 -53.9319
LeftForeArm  36.7527 0.430417 -12.118
LeftHand  -0.0547316 4.43738 4.20199
RightShoulder  0.535413 -1.67063 26.3744
RightArm  -40.9791 4.40245 39.0405
RightForeArm  -12.9624 11.6498 -2.45574
RightHand  -0.00964552 -1.02892 -0.108624
LeftUpLeg  -18.7122 -2.47177 3.08078
LeftLeg  53.2115 6.05517 9.0919
LeftFoot  -8.2958 0.189689 -5.26345
LeftToes  -7.20997e-011 3.75522e-011 -2.80735e-011
70
root  -7.57809 38.9722 -108.017 3.15662 -5.55437 -2.13394
RightUpLeg  -7.57658 0.928657 2.86871
RightLeg  21.9725 2.13127 0.689826
RightFoot  -16.3482 -0.140812 -0.691564
RightToes  5.38607e-012 1.2921e-014 -6.02303e-014
Spine  -4.89553 -4.44734 2.82391
Spine1  8.47055 -5.35023 3.32694
HEad  38.0471 -17.7757 -6.22114
LeftShoulder1  1.3648 -1.8002 -20.557
LeftArm  -3.32302 3.51046 -53.7027
LeftForeArm  36.4057 -1.07889 -12.1056
LeftHand  -0.0554174 4.45175 4.36069
RightShoulder  0.598427 -1.44173 25.7576
RightArm  -44.2092 5.70015 38.4933
RightForeArm  -14.6133 12.662 -3.07897
RightHand  -0.0011047 -1.18409 0.149439
LeftUpLeg  -20.7097 -2.35076 2.17094
LeftLeg  48.7356 7.08754 8.99922
LeftFoot  -8.90518 0.160582 -5.0407
LeftToes  -7.20997e-011 3.75522e-011 -2.80735e-011
71
root  -7.767 39.0745 -107.173 3.21022 -5.27987 -1.24618
RightUpLeg  -5.3833 -1.28931 1.86415
RightLeg  20.2085 3.95319 1.30155
RightFoot  -16.8442 -0.16955 -1.15764
RightToes  5.38607e-012 1.2921e-014 -6.02303e-014
Spine  -4.972 -4.02796 2.3875
Spine1  8.03809 -4.81307 2.67005
HEad  37.3336 -17.2637 -6.0941
LeftShoulder1  1.28182 -1.41537 -21.0052
LeftArm  -2.96144 3.4495 -53.0559
LeftForeArm  35.8656 -2.34419 -12.0332
LeftHand  -0.060232 4.3416 4.50984
RightShoulder  0.664139 -1.17311 24.7935
RightArm  -48.2188 6.5145 37.83
RightForeArm  -16.4384 13.2574 -3.98674
RightHand  0.022805 -0.980191 0.748906
LeftUpLeg  -22.5139 -2.15777 1.03077
LeftLeg  43.1636 8.20542 8.54769
LeftFoot  -8.96822 0.157864 -5.02523
LeftToes  -7.20997e-011 3.75522e-011 -2.80735e-011
72
root  -7.92186 39.1437 -106.322 3.3962 -5.03113 -0.525116
RightUpLeg  -3.27589 -2.84979 1.00077
RightLeg  18.4354 5.15837 1.57985
RightFoot  -17.2989 -0.194833 -1.49605
RightToes  5.38607e-012 1.2921e-014 -6.02303e-014
Spine  -5.13648 -3.85035 2.31926
Spine1  7.73438 -4.44992 1.6946
HEad  36.6115 -16.2049 -5.84899
LeftShoulder1  1.14299 -0.911001 -20.9547
LeftArm  -2.40079 3.70073 -52.5466
LeftForeArm  34.8129 -3.50113 -11.9733
LeftHand  -0.0707635 4.07889 4.66307
RightShoulder  0.677779 -1.09106 24.2362
RightArm  -52.7953 6.85293 37.1818
RightForeArm  -16.9336 13.7166 -4.84444
RightHand  0.0113399 -1.78799 0.69056
LeftUpLeg  -23.9711 -2.30594 -0.0459786
LeftLeg  36.798 9.7388 8.09316
LeftFoot  -8.84239 0.150931 -4.48864
LeftToes  -7.20997e-011 3.75522e-011 -2.80735e-011
73
root  -8.05895 39.1714 -105.456 3.63558 -5.16215 0.0910476
RightUpLeg  -1.29306 -3.90704 0.145331
RightLeg  16.79 6.31198 1.83951
RightFoot  -17.75 -0.21621 -1.71791
RightToes  5.38607e-012 1.2921e-014 -6.02303e-014
Spine  -5.37876 -3.60425 1.96417
Spine1  7.56316 -4.12552 1.17833
HEad  35.6435 -14.7243 -5.77317
LeftShoulder1  1.11577 -0.798836 -21.0368
LeftArm  -2.29735 4.31269 -51.9838
LeftForeArm  34.0547 -4.28748 -11.8493
LeftHand  -0.0678604 4.14976 4.62248
RightShoulder  0.81792 -0.534803 23.163
RightArm  -55.1705 5.9167 36.5484
RightForeArm  -18.7552 13.0574 -6.21355
RightHand  -0.000118934 -2.36527 0.501253
LeftUpLeg  -24.7629 -2.64354 -0.939577
LeftLeg  29.3068 11.6412 7.32158
LeftFoot  -7.98643 0.16688 -4.06225
LeftToes  -7.20997e-011 3.75522e-011 -2.80735e-011
74
root  -8.17856 39.1773 -104.576 3.8857 -5.61502 0.677005
RightUpLeg  0.606477 -4.12611 -0.575309
RightLeg  15.2348 6.85205 1.74075
RightFoot  -18.0902 -0.25723 -2.28783
RightToes  5.38607e-012 1.2921e-014 -6.02303e-014
Spine  -5.74846 -3.57894 1.34786
Spine1  7.73726 -4.00631 0.643372
HEad  34.6213 -12.5118 -5.56499
LeftShoulder1  1.07983 -0.638706 -21.2413
LeftArm  -2.12797 5.09202 -51.0886
LeftForeArm  33.5391 -4.67947 -11.7928
LeftHand  -0.0738496 3.99535 4.67504
RightShoulder  0.804715 -0.545591 22.7729
RightArm  -56.1027 5.43927 36.2785
RightForeArm  -19.0571 11.2698 -8.24478
RightHand  -0.00210812 -2.43037 0.447168
LeftUpLeg  -24.8177 -3.34421 -1.59651
LeftLeg  20.4987 13.8412 5.96923
LeftFoot  -4.9704 0.272651 -4.36239
LeftToes  -7.20997e-011 3.75522e-011 -2.80735e-011
75
root  -8.27639 39.1394 -103.677 4.30245 -6.27365 1.10897
RightUpLeg  2.23176 -3.94637 -1.09942
RightLeg  13.8601 7.24539 1.5042
RightFoot  -18.6115 -0.262951 -2.15782
RightToes  5.38607e-012 1.2921e-014 -6.02303e-014
Spine  -6.11566 -3.6858 0.548546
Spine1  7.91156 -4.07097 0.447892
HEad  33.575 -9.4324 -5.18723
LeftShoulder1  0.996241 -0.313549 -21.3994
LeftArm  -2.27722 5.89486 -50.4011
LeftForeArm  33.5312 -4.27213 -11.8603
LeftHand  -0.0663301 4.17494 4.55465
RightShoulder  0.779091 -0.64285 22.8695
RightArm  -52.8529 4.08833 35.3934
RightForeArm  -21.1941 8.97277 -9.21292
RightHand  -0.0136571 -2.59014 0.0201551
LeftUpLeg  -24.7752 -4.17603 -2.17361
LeftLeg  11.4237 15.3216 4.50852
LeftFoot  0.388153 0.455936 -4.46152
LeftToes  -7.20997e-011 3.75522e-011 -2.80735e-011
76
root  -8.35873 39.0492 -102.75 4.64862 -7.19676 1.35514
RightUpLeg  3.65043 -3.62291 -1.50067
RightLeg  13.128 7.58654 1.33662
RightFoot  -19.2738 -0.274165 -2.07406
RightToes  5.38607e-012 1.2921e-014 -6.02303e-014
Spine  -6.49857 -3.8486 -0.196275
Spine1  8.31595 -4.17176 0.282629
HEad  32.3612 -6.29664 -4.76696
LeftShoulder1  0.955052 -0.176304 -21.2943
LeftArm  -2.78197 6.88549 -49.9265
LeftForeArm  34.1337 -3.34777 -11.941
LeftHand  -0.0662605 4.15599 4.48068
RightShoulder  0.773205 -0.709534 23.4217
RightArm  -48.9379 2.1429 34.0193
RightForeArm  -21.1394 6.73749 -8.97419
RightHand  -0.026621 -3.19696 -0.502916
LeftUpLeg  -24.8083 -3.51715 -2.96504
LeftLeg  3.88501 13.547 2.86234
LeftFoot  2.98194 0.483922 -3.99525
LeftToes  -7.20997e-011 3.75522e-011 -2.80735e-011
